<?xml version="1.0" encoding="UTF-8"?>
<svg width="12px" height="12px" viewBox="0 0 12 12" version="1.1" xmlns="http://www.w3.org/2000/svg" xmlns:xlink="http://www.w3.org/1999/xlink">
    <!-- Generator: Sketch 58 (84663) - https://sketch.com -->
    <title>linkage</title>
    <desc>Created with Sketch.</desc>
    <g id="展现" stroke="none" stroke-width="1" fill="none" fill-rule="evenodd" opacity="0.600000024">
        <g id="属性面板条件按钮优化" transform="translate(-90.000000, -834.000000)" fill="#5A6677">
            <g id="编组-15" transform="translate(52.000000, 48.000000)">
                <g id="编组-4">
                    <g id="编组-50" transform="translate(12.000000, 432.000000)">
                        <path d="M35.5,354 C35.7761424,354 36,354.223858 36,354.5 L36.0004345,355.050097 C37.1413382,355.2819 38,356.290675 38,357.5 C38,358.709325 37.1413382,359.7181 36.0004345,359.949903 L36,361 C36,361.276142 35.7761424,361.5 35.5,361.5 L28.5,361.5 C28.2238576,361.5 28,361.276142 28,361 L28.0002925,360.83525 C27.4175435,361.041085 27,361.596781 27,362.25 C27,362.903219 27.4175435,363.458915 28.0002925,363.66475 L28,363.5 C28,363.223858 28.2238576,363 28.5,363 L35.5,363 C35.7761424,363 36,363.223858 36,363.5 L36,365.5 C36,365.776142 35.7761424,366 35.5,366 L28.5,366 C28.2238576,366 28,365.776142 28,365.5 L28.000574,364.700107 C26.8591679,364.468694 26,363.459682 26,362.25 C26,361.040318 26.8591679,360.031306 28.000574,359.799893 L28,359 C28,358.723858 28.2238576,358.5 28.5,358.5 L35.5,358.5 C35.7475054,358.5 35.953008,358.679835 35.9929689,358.915967 C36.5791209,358.713344 37,358.155823 37,357.5 C37,356.847153 36.5829319,356.291718 36.000703,356.085602 L36,356.5 C36,356.776142 35.7761424,357 35.5,357 L28.5,357 C28.2238576,357 28,356.776142 28,356.5 L28,354.5 C28,354.223858 28.2238576,354 28.5,354 L35.5,354 Z M34,364 L30,364 L30,365 L34,365 L34,364 Z M34,359.5 L30,359.5 L30,360.5 L34,360.5 L34,359.5 Z M34,355 L30,355 L30,356 L34,356 L34,355 Z" id="linkage"></path>
                    </g>
                </g>
            </g>
        </g>
    </g>
</svg>